<svg xmlns="http://www.w3.org/2000/svg" xmlns:xlink="http://www.w3.org/1999/xlink" width="500" zoomAndPan="magnify" viewBox="0 0 375 374.999991" height="500" preserveAspectRatio="xMidYMid meet" version="1.0"><defs><clipPath id="7bba4d1c9e"><path d="M 166 37.628906 L 292 37.628906 L 292 163 L 166 163 Z M 166 37.628906 " clip-rule="nonzero"/></clipPath><clipPath id="c669864d3f"><path d="M 83 37.628906 L 209 37.628906 L 209 163 L 83 163 Z M 83 37.628906 " clip-rule="nonzero"/></clipPath></defs><path fill="#38b6ff" d="M 331.253906 183.230469 L 312.449219 164.429688 L 293.644531 183.230469 L 312.449219 202.035156 Z M 312.449219 120.683594 C 313.550781 120.683594 314.652344 121.101562 315.492188 121.941406 L 373.738281 180.1875 C 374.546875 180.996094 374.996094 182.089844 374.996094 183.230469 C 374.996094 184.375 374.546875 185.464844 373.738281 186.273438 L 315.492188 244.519531 C 313.808594 246.199219 311.085938 246.199219 309.40625 244.519531 L 270.878906 205.996094 L 270.4375 206.441406 C 268.753906 208.121094 266.03125 208.121094 264.351562 206.441406 C 262.667969 204.761719 262.667969 202.039062 264.351562 200.355469 L 309.40625 155.296875 C 311.085938 153.621094 313.808594 153.621094 315.492188 155.296875 L 340.382812 180.1875 C 341.1875 180.996094 341.644531 182.089844 341.644531 183.230469 C 341.644531 184.375 341.1875 185.464844 340.382812 186.273438 L 315.492188 211.164062 C 313.808594 212.84375 311.085938 212.847656 309.40625 211.164062 L 287.558594 189.316406 L 276.964844 199.910156 L 312.449219 235.390625 L 364.609375 183.230469 L 312.449219 131.070312 L 232.367188 211.152344 C 230.6875 212.832031 227.964844 212.832031 226.285156 211.152344 C 224.601562 209.46875 224.601562 206.746094 226.285156 205.066406 L 309.40625 121.945312 C 310.246094 121.101562 311.347656 120.683594 312.449219 120.683594 " fill-opacity="1" fill-rule="nonzero"/><g clip-path="url(#7bba4d1c9e)"><path fill="#38b6ff" d="M 187.769531 112.460938 C 188.867188 112.460938 189.96875 112.882812 190.808594 113.722656 L 232.371094 155.289062 C 234.050781 156.964844 234.050781 159.691406 232.371094 161.371094 C 230.691406 163.054688 227.96875 163.054688 226.285156 161.371094 L 184.726562 119.808594 C 183.042969 118.128906 183.042969 115.402344 184.726562 113.722656 C 185.566406 112.882812 186.664062 112.460938 187.769531 112.460938 Z M 248.132812 100.082031 L 229.328125 81.28125 L 210.527344 100.082031 L 229.328125 118.890625 Z M 229.328125 70.886719 C 230.472656 70.886719 231.566406 71.339844 232.371094 72.148438 L 257.261719 97.042969 C 258.941406 98.722656 258.941406 101.445312 257.261719 103.128906 L 232.371094 128.019531 C 230.757812 129.628906 227.898438 129.628906 226.285156 128.019531 L 201.394531 103.128906 C 199.71875 101.445312 199.71875 98.722656 201.394531 97.042969 L 226.285156 72.148438 C 227.09375 71.339844 228.1875 70.886719 229.328125 70.886719 Z M 229.328125 37.535156 C 230.472656 37.535156 231.566406 37.984375 232.371094 38.792969 L 290.617188 97.042969 C 292.296875 98.722656 292.296875 101.445312 290.617188 103.128906 L 249.074219 144.683594 C 247.390625 146.363281 244.667969 146.363281 242.988281 144.683594 C 241.304688 143 241.304688 140.277344 242.984375 138.597656 L 281.488281 100.082031 L 229.328125 47.921875 L 174.125 103.128906 C 172.445312 104.808594 169.722656 104.808594 168.039062 103.128906 C 166.359375 101.445312 166.359375 98.722656 168.039062 97.042969 L 226.285156 38.792969 C 227.09375 37.984375 228.1875 37.535156 229.328125 37.535156 " fill-opacity="1" fill-rule="nonzero"/></g><path fill="#38b6ff" d="M 187.75 195.585938 C 188.851562 195.585938 189.953125 196.003906 190.792969 196.84375 L 232.375 238.429688 C 234.058594 240.109375 234.058594 242.835938 232.375 244.515625 C 230.695312 246.195312 227.972656 246.195312 226.289062 244.515625 L 184.707031 202.929688 C 183.027344 201.25 183.027344 198.523438 184.707031 196.84375 C 185.546875 196.003906 186.648438 195.585938 187.75 195.585938 Z M 287.582031 178.921875 C 288.683594 178.921875 289.785156 179.34375 290.625 180.183594 C 292.304688 181.863281 292.304688 184.589844 290.625 186.269531 L 249.039062 227.855469 C 247.359375 229.535156 244.636719 229.535156 242.953125 227.855469 C 241.273438 226.171875 241.273438 223.449219 242.953125 221.765625 L 284.539062 180.183594 C 285.378906 179.34375 286.480469 178.921875 287.582031 178.921875 Z M 248.140625 183.226562 L 229.332031 164.421875 L 210.527344 183.226562 L 229.332031 202.03125 Z M 229.332031 154.03125 C 230.433594 154.03125 231.535156 154.453125 232.375 155.292969 L 257.269531 180.179688 C 258.078125 180.988281 258.53125 182.085938 258.53125 183.226562 C 258.53125 184.367188 258.078125 185.464844 257.269531 186.269531 L 232.375 211.160156 C 230.695312 212.839844 227.972656 212.84375 226.289062 211.160156 L 201.402344 186.269531 C 199.71875 184.589844 199.71875 181.863281 201.402344 180.183594 L 226.289062 155.292969 C 227.132812 154.453125 228.230469 154.03125 229.332031 154.03125 Z M 212.675781 137.339844 C 213.777344 137.339844 214.878906 137.757812 215.71875 138.597656 C 217.398438 140.277344 217.398438 143.007812 215.71875 144.6875 L 174.132812 186.269531 C 172.449219 187.949219 169.726562 187.949219 168.046875 186.269531 C 166.367188 184.589844 166.367188 181.863281 168.046875 180.179688 L 209.632812 138.597656 C 210.472656 137.757812 211.574219 137.339844 212.675781 137.339844 Z M 229.332031 120.675781 C 230.433594 120.675781 231.535156 121.097656 232.375 121.9375 L 273.929688 163.488281 C 275.609375 165.167969 275.609375 167.894531 273.929688 169.574219 C 272.246094 171.257812 269.523438 171.257812 267.84375 169.574219 L 226.289062 128.023438 C 224.609375 126.34375 224.609375 123.617188 226.289062 121.9375 C 227.132812 121.097656 228.230469 120.675781 229.332031 120.675781 " fill-opacity="1" fill-rule="nonzero"/><path fill="#38b6ff" d="M 229.332031 154.03125 C 230.433594 154.03125 231.535156 154.449219 232.375 155.289062 C 234.058594 156.972656 234.058594 159.699219 232.375 161.378906 L 190.828125 202.929688 C 189.144531 204.605469 186.421875 204.605469 184.738281 202.929688 C 183.058594 201.246094 183.058594 198.519531 184.738281 196.839844 L 226.289062 155.289062 C 227.132812 154.449219 228.230469 154.03125 229.332031 154.03125 Z M 206.585938 141.636719 L 187.785156 122.835938 L 168.980469 141.636719 L 187.785156 160.441406 Z M 187.785156 112.449219 C 188.882812 112.449219 189.988281 112.867188 190.828125 113.707031 L 215.714844 138.597656 C 216.523438 139.402344 216.976562 140.496094 216.976562 141.636719 C 216.976562 142.78125 216.523438 143.875 215.714844 144.683594 L 190.828125 169.570312 C 190.019531 170.378906 188.921875 170.832031 187.785156 170.832031 C 186.640625 170.832031 185.546875 170.378906 184.738281 169.570312 L 159.851562 144.683594 C 158.167969 143 158.167969 140.273438 159.851562 138.597656 L 184.738281 113.707031 C 185.582031 112.867188 186.683594 112.449219 187.785156 112.449219 Z M 204.457031 95.765625 C 205.558594 95.765625 206.660156 96.183594 207.5 97.023438 L 234.449219 123.972656 C 236.132812 125.652344 236.132812 128.378906 234.449219 130.058594 C 232.773438 131.738281 230.046875 131.738281 228.363281 130.058594 L 201.414062 103.113281 C 199.730469 101.429688 199.730469 98.707031 201.414062 97.023438 C 202.253906 96.183594 203.355469 95.765625 204.457031 95.765625 Z M 187.785156 79.089844 C 188.882812 79.089844 189.988281 79.511719 190.828125 80.351562 C 192.507812 82.03125 192.507812 84.753906 190.828125 86.4375 L 149.976562 127.285156 C 148.296875 128.964844 145.574219 128.964844 143.894531 127.285156 C 142.210938 125.601562 142.210938 122.878906 143.894531 121.195312 L 184.738281 80.351562 C 185.582031 79.511719 186.683594 79.089844 187.785156 79.089844 " fill-opacity="1" fill-rule="nonzero"/><g clip-path="url(#c669864d3f)"><path fill="#38b6ff" d="M 165.007812 100.089844 L 146.203125 81.289062 L 127.398438 100.089844 L 146.203125 118.898438 Z M 146.203125 70.898438 C 147.304688 70.898438 148.402344 71.320312 149.242188 72.160156 L 174.136719 97.046875 C 175.816406 98.730469 175.816406 101.453125 174.136719 103.132812 L 152.289062 124.984375 L 162.878906 135.574219 L 201.40625 97.046875 C 203.085938 95.367188 205.808594 95.367188 207.488281 97.046875 C 209.171875 98.730469 209.171875 101.453125 207.488281 103.132812 L 165.941406 144.6875 C 165.726562 144.902344 165.488281 145.089844 165.246094 145.25 C 163.574219 146.355469 161.300781 146.167969 159.832031 144.699219 L 118.265625 103.132812 C 117.460938 102.328125 117.003906 101.234375 117.003906 100.089844 C 117.003906 98.953125 117.460938 97.855469 118.265625 97.046875 L 143.160156 72.15625 C 144 71.320312 145.101562 70.898438 146.203125 70.898438 Z M 146.203125 37.546875 C 147.304688 37.546875 148.402344 37.964844 149.242188 38.804688 L 190.808594 80.371094 C 192.492188 82.050781 192.492188 84.773438 190.808594 86.453125 C 189.128906 88.132812 186.402344 88.132812 184.726562 86.453125 L 146.203125 47.933594 L 94.039062 100.089844 L 149.242188 155.296875 C 150.925781 156.976562 150.925781 159.699219 149.242188 161.382812 C 147.566406 163.0625 144.839844 163.0625 143.160156 161.382812 L 84.910156 103.132812 C 84.101562 102.328125 83.652344 101.234375 83.652344 100.089844 C 83.652344 98.953125 84.101562 97.855469 84.910156 97.046875 L 143.160156 38.804688 C 144 37.964844 145.101562 37.546875 146.203125 37.546875 " fill-opacity="1" fill-rule="nonzero"/></g><path fill="#38b6ff" d="M 187.75 245.359375 C 188.851562 245.359375 189.953125 245.78125 190.792969 246.617188 C 192.472656 248.300781 192.472656 251.027344 190.792969 252.707031 L 174.097656 269.402344 C 172.417969 271.082031 169.695312 271.082031 168.011719 269.402344 C 166.332031 267.722656 166.332031 265 168.011719 263.320312 L 184.707031 246.621094 C 185.546875 245.78125 186.648438 245.359375 187.75 245.359375 Z M 248.105469 266.359375 L 229.300781 247.554688 L 210.496094 266.359375 L 229.300781 285.164062 Z M 229.300781 237.164062 C 230.441406 237.164062 231.535156 237.621094 232.34375 238.425781 L 257.234375 263.320312 C 258.914062 265 258.914062 267.722656 257.234375 269.402344 L 232.34375 294.296875 C 230.730469 295.90625 227.871094 295.90625 226.257812 294.296875 L 201.367188 269.402344 C 199.6875 267.722656 199.6875 265 201.367188 263.320312 L 226.257812 238.425781 C 227.0625 237.621094 228.15625 237.164062 229.300781 237.164062 Z M 229.300781 203.808594 C 230.402344 203.808594 231.5 204.230469 232.34375 205.070312 L 290.585938 263.320312 C 291.394531 264.125 291.847656 265.21875 291.847656 266.359375 C 291.847656 267.503906 291.394531 268.59375 290.585938 269.402344 L 232.34375 327.648438 C 230.660156 329.328125 227.9375 329.328125 226.257812 327.648438 L 184.6875 286.078125 C 183.003906 284.398438 183.003906 281.675781 184.6875 279.992188 C 186.367188 278.3125 189.09375 278.3125 190.773438 279.992188 L 229.300781 318.519531 L 281.460938 266.359375 L 226.257812 211.15625 C 224.578125 209.476562 224.578125 206.753906 226.257812 205.070312 C 227.097656 204.230469 228.199219 203.808594 229.300781 203.808594 " fill-opacity="1" fill-rule="nonzero"/><path fill="#38b6ff" d="M 229.316406 237.148438 C 230.414062 237.148438 231.519531 237.570312 232.359375 238.410156 C 234.039062 240.089844 234.039062 242.816406 232.359375 244.496094 L 190.792969 286.058594 C 189.109375 287.738281 186.386719 287.738281 184.707031 286.058594 C 183.027344 284.378906 183.027344 281.65625 184.707031 279.972656 L 226.273438 238.40625 C 227.113281 237.570312 228.214844 237.148438 229.316406 237.148438 Z M 206.554688 224.773438 L 187.75 205.96875 L 168.945312 224.773438 L 187.75 243.578125 Z M 187.75 195.578125 C 188.851562 195.578125 189.953125 196 190.792969 196.839844 L 215.683594 221.730469 C 217.363281 223.410156 217.363281 226.136719 215.683594 227.8125 L 190.792969 252.707031 C 189.179688 254.324219 186.320312 254.324219 184.707031 252.707031 L 159.816406 227.8125 C 158.136719 226.136719 158.136719 223.410156 159.816406 221.730469 L 184.707031 196.839844 C 185.546875 196 186.648438 195.578125 187.75 195.578125 " fill-opacity="1" fill-rule="nonzero"/><path fill="#38b6ff" d="M 104.523438 195.523438 C 105.628906 195.523438 106.726562 195.945312 107.570312 196.785156 L 149.210938 238.425781 C 150.890625 240.109375 150.890625 242.832031 149.210938 244.515625 C 147.53125 246.195312 144.808594 246.195312 143.125 244.515625 L 101.480469 202.871094 C 99.804688 201.191406 99.804688 198.464844 101.480469 196.785156 C 102.324219 195.945312 103.425781 195.523438 104.523438 195.523438 Z M 164.972656 183.226562 L 146.167969 164.417969 L 127.363281 183.226562 L 146.167969 202.03125 Z M 146.167969 154.03125 C 147.269531 154.03125 148.371094 154.449219 149.210938 155.289062 L 174.101562 180.179688 C 175.785156 181.863281 175.785156 184.585938 174.101562 186.269531 L 149.210938 211.15625 C 147.597656 212.773438 144.738281 212.773438 143.125 211.160156 L 118.234375 186.269531 C 117.425781 185.460938 116.96875 184.367188 116.96875 183.226562 C 116.96875 182.082031 117.425781 180.988281 118.234375 180.179688 L 143.125 155.289062 C 143.964844 154.449219 145.066406 154.03125 146.167969 154.03125 Z M 129.523438 137.320312 C 130.621094 137.320312 131.726562 137.738281 132.5625 138.578125 C 134.246094 140.261719 134.246094 142.988281 132.5625 144.664062 L 90.964844 186.265625 C 89.28125 187.949219 86.558594 187.949219 84.878906 186.265625 C 83.199219 184.585938 83.199219 181.859375 84.878906 180.179688 L 126.480469 138.578125 C 127.320312 137.738281 128.421875 137.320312 129.523438 137.320312 Z M 146.167969 120.671875 C 147.269531 120.671875 148.371094 121.097656 149.210938 121.9375 L 190.792969 163.523438 C 192.472656 165.203125 192.472656 167.925781 190.792969 169.609375 C 189.109375 171.285156 186.386719 171.289062 184.707031 169.605469 L 143.125 128.019531 C 141.445312 126.339844 141.445312 123.617188 143.125 121.9375 C 143.964844 121.097656 145.066406 120.671875 146.167969 120.671875 " fill-opacity="1" fill-rule="nonzero"/><path fill="#38b6ff" d="M 164.914062 266.265625 L 146.109375 247.460938 L 127.304688 266.265625 L 146.109375 285.070312 Z M 146.109375 237.074219 C 147.25 237.074219 148.347656 237.523438 149.152344 238.332031 L 174.042969 263.222656 C 175.722656 264.902344 175.722656 267.628906 174.042969 269.308594 L 149.152344 294.199219 C 147.539062 295.816406 144.679688 295.816406 143.066406 294.199219 L 118.175781 269.308594 C 116.496094 267.628906 116.496094 264.902344 118.175781 263.222656 L 143.066406 238.332031 C 143.871094 237.523438 144.96875 237.074219 146.109375 237.074219 Z M 129.433594 220.394531 C 130.535156 220.394531 131.636719 220.816406 132.476562 221.65625 C 134.15625 223.335938 134.15625 226.058594 132.476562 227.742188 L 93.953125 266.265625 L 146.109375 318.425781 L 201.3125 263.222656 C 202.992188 261.542969 205.714844 261.542969 207.398438 263.222656 C 209.078125 264.902344 209.078125 267.628906 207.398438 269.308594 L 149.152344 327.554688 C 147.539062 329.167969 144.679688 329.167969 143.066406 327.554688 L 84.820312 269.308594 C 84.015625 268.503906 83.558594 267.40625 83.558594 266.265625 C 83.558594 265.125 84.015625 264.027344 84.820312 263.222656 L 126.390625 221.65625 C 127.230469 220.816406 128.332031 220.394531 129.433594 220.394531 Z M 146.109375 203.71875 C 147.210938 203.71875 148.3125 204.140625 149.152344 204.980469 L 190.792969 246.621094 C 192.476562 248.300781 192.476562 251.027344 190.792969 252.707031 C 189.113281 254.386719 186.390625 254.386719 184.707031 252.707031 L 143.066406 211.066406 C 141.386719 209.382812 141.386719 206.660156 143.066406 204.980469 C 143.90625 204.140625 145.007812 203.71875 146.109375 203.71875 " fill-opacity="1" fill-rule="nonzero"/><path fill="#38b6ff" d="M 81.78125 183.132812 L 62.976562 164.324219 L 44.171875 183.132812 L 62.976562 201.933594 Z M 62.976562 153.9375 C 64.078125 153.9375 65.179688 154.359375 66.019531 155.195312 L 90.910156 180.089844 C 91.71875 180.894531 92.171875 181.988281 92.171875 183.132812 C 92.171875 184.269531 91.71875 185.363281 90.910156 186.171875 L 66.019531 211.0625 C 64.335938 212.742188 61.617188 212.742188 59.9375 211.0625 L 35.042969 186.171875 C 33.363281 184.496094 33.363281 181.769531 35.042969 180.089844 L 59.9375 155.195312 C 60.773438 154.359375 61.875 153.9375 62.976562 153.9375 Z M 62.976562 120.582031 C 64.078125 120.582031 65.179688 121 66.019531 121.84375 L 107.664062 163.484375 C 109.339844 165.164062 109.339844 167.886719 107.664062 169.570312 C 105.980469 171.25 103.257812 171.25 101.578125 169.570312 L 62.976562 130.972656 L 10.816406 183.132812 L 62.976562 235.289062 L 121.523438 176.742188 C 123.207031 175.066406 125.929688 175.0625 127.609375 176.746094 C 129.289062 178.421875 129.289062 181.148438 127.609375 182.828125 L 66.019531 244.421875 C 65.210938 245.222656 64.121094 245.675781 62.976562 245.675781 C 61.835938 245.675781 60.738281 245.222656 59.9375 244.421875 L 1.691406 186.171875 C 0.0078125 184.496094 0.0078125 181.769531 1.691406 180.089844 L 59.9375 121.84375 C 60.773438 121 61.875 120.582031 62.976562 120.582031 " fill-opacity="1" fill-rule="nonzero"/></svg>